<svg width="17" height="16" viewBox="0 0 17 16" fill="none" xmlns="http://www.w3.org/2000/svg">
<path d="M3 1.85242C2.73478 1.85242 2.48043 1.95777 2.29289 2.14531C2.10536 2.33285 2 2.5872 2 2.85242V3.85242C2 4.11763 2.10536 4.37199 2.29289 4.55952C2.48043 4.74706 2.73478 4.85242 3 4.85242H3.5V13.8524C3.5 14.3828 3.71071 14.8916 4.08579 15.2666C4.46086 15.6417 4.96957 15.8524 5.5 15.8524H11.5C12.0304 15.8524 12.5391 15.6417 12.9142 15.2666C13.2893 14.8916 13.5 14.3828 13.5 13.8524V4.85242H14C14.2652 4.85242 14.5196 4.74706 14.7071 4.55952C14.8946 4.37199 15 4.11763 15 3.85242V2.85242C15 2.5872 14.8946 2.33285 14.7071 2.14531C14.5196 1.95777 14.2652 1.85242 14 1.85242H10.5C10.5 1.5872 10.3946 1.33285 10.2071 1.14531C10.0196 0.957774 9.76522 0.852417 9.5 0.852417H7.5C7.23478 0.852417 6.98043 0.957774 6.79289 1.14531C6.60536 1.33285 6.5 1.5872 6.5 1.85242H3ZM6 5.85242C6.13261 5.85242 6.25979 5.9051 6.35355 5.99886C6.44732 6.09263 6.5 6.21981 6.5 6.35242V13.3524C6.5 13.485 6.44732 13.6122 6.35355 13.706C6.25979 13.7997 6.13261 13.8524 6 13.8524C5.86739 13.8524 5.74021 13.7997 5.64645 13.706C5.55268 13.6122 5.5 13.485 5.5 13.3524V6.35242C5.5 6.21981 5.55268 6.09263 5.64645 5.99886C5.74021 5.9051 5.86739 5.85242 6 5.85242V5.85242ZM8.5 5.85242C8.63261 5.85242 8.75979 5.9051 8.85355 5.99886C8.94732 6.09263 9 6.21981 9 6.35242V13.3524C9 13.485 8.94732 13.6122 8.85355 13.706C8.75979 13.7997 8.63261 13.8524 8.5 13.8524C8.36739 13.8524 8.24021 13.7997 8.14645 13.706C8.05268 13.6122 8 13.485 8 13.3524V6.35242C8 6.21981 8.05268 6.09263 8.14645 5.99886C8.24021 5.9051 8.36739 5.85242 8.5 5.85242V5.85242ZM11.5 6.35242V13.3524C11.5 13.485 11.4473 13.6122 11.3536 13.706C11.2598 13.7997 11.1326 13.8524 11 13.8524C10.8674 13.8524 10.7402 13.7997 10.6464 13.706C10.5527 13.6122 10.5 13.485 10.5 13.3524V6.35242C10.5 6.21981 10.5527 6.09263 10.6464 5.99886C10.7402 5.9051 10.8674 5.85242 11 5.85242C11.1326 5.85242 11.2598 5.9051 11.3536 5.99886C11.4473 6.09263 11.5 6.21981 11.5 6.35242V6.35242Z" fill="#DC0A2D"/>
</svg>
